<svg width="800" height="800" viewBox="0 0 800 800" fill="none" xmlns="http://www.w3.org/2000/svg">
<g clip-path="url(#clip0_1_2)">
<path d="M363.333 70L693.3 117.167L740.433 447.167L434.033 753.567C427.782 759.816 419.305 763.326 410.467 763.326C401.628 763.326 393.151 759.816 386.9 753.567L56.9 423.567C50.651 417.316 47.1405 408.839 47.1405 400C47.1405 391.161 50.651 382.684 56.9 376.433L363.333 70ZM457.6 352.867C463.792 359.056 471.142 363.966 479.231 367.315C487.321 370.664 495.99 372.387 504.745 372.385C513.5 372.384 522.169 370.658 530.257 367.306C538.345 363.954 545.694 359.042 551.883 352.85C558.073 346.658 562.982 339.308 566.331 331.219C569.68 323.129 571.403 314.46 571.402 305.705C571.4 296.95 569.674 288.281 566.322 280.193C562.971 272.105 558.058 264.756 551.867 258.567C545.675 252.377 538.325 247.468 530.235 244.119C522.146 240.77 513.477 239.047 504.722 239.048C487.04 239.051 470.084 246.078 457.583 258.583C445.083 271.088 438.062 288.047 438.065 305.728C438.068 323.41 445.095 340.366 457.6 352.867Z" fill="#2ECC71"/>
</g>
<defs>
<clipPath id="clip0_1_2">
<rect width="800" height="800" fill="white"/>
</clipPath>
</defs>
</svg>
